<svg preserveAspectRatio="none" overflow="visible" style="display: block;" width="16" height="16" viewBox="0 0 16 16" fill="none" xmlns="http://www.w3.org/2000/svg">
<g id="noto:2nd-place-medal">
<path id="Vector" d="M8.63625 0.53C8.50125 0.65 7.45125 2.73375 7.45125 2.73375L6.67 5.885L9.71 5.60625C9.71 5.60625 12.2387 0.90375 12.29 0.795C12.3812 0.5975 12.43 0.51625 12.0813 0.51625C11.7325 0.515 8.7625 0.4175 8.63625 0.53Z" fill="#176CC7"/>
<path id="Vector_2" d="M10.21 5.41125C10.0588 5.33 5.60375 5.26 5.49875 5.41125C5.40375 5.54875 5.4575 6.27 5.49375 6.35625C5.55875 6.50625 6.9975 7.16 6.9975 7.16L6.97 7.4575C6.97 7.4575 7.0875 7.4875 7.92375 7.4875C8.76 7.4875 8.925 7.445 8.925 7.445L8.9275 7.17625C8.9275 7.17625 10.2225 6.54625 10.2875 6.45875C10.3425 6.38625 10.3613 5.4925 10.21 5.41125ZM8.88375 6.55125C8.88375 6.55125 8.925 6.3675 8.83875 6.325C8.7525 6.28125 7.2725 6.30125 7.155 6.3075C7.0375 6.31375 7.0375 6.52375 7.0375 6.52375L6.0875 5.9575V5.865L9.625 5.89L9.63125 5.995L8.88375 6.55125Z" fill="#CECDD2"/>
<path id="Vector_3" d="M7.4075 6.39625C7.29 6.39625 7.2225 6.51875 7.2225 6.73C7.2225 6.9275 7.29 7.09375 7.43875 7.08125C7.56125 7.07125 7.60375 6.88375 7.5925 6.7175C7.58125 6.52 7.55625 6.39625 7.4075 6.39625Z" fill="#FDFFFF"/>
<path id="Vector_4" d="M3.62125 11.4862C3.62125 14.4812 6.3775 15.7525 8.17875 15.6988C10.2775 15.6363 12.4925 14.0437 12.3487 11.1862C12.2125 8.47875 9.91625 7.275 7.94375 7.28875C5.65125 7.30625 3.62125 8.87 3.62125 11.4862Z" fill="#CECDD2"/>
<path id="Vector_5" d="M8.06625 15.1412C8.035 15.1412 8.0025 15.1413 7.97125 15.14C7.03375 15.1088 6.1075 14.7137 5.43 14.0575C4.705 13.355 4.3075 12.405 4.3125 11.3837C4.32375 8.89 6.50375 7.73375 7.9825 7.73375H7.995C9.99875 7.7425 11.6437 9.3 11.69 11.4113C11.71 12.3513 11.325 13.3375 10.57 14.08C9.865 14.7712 8.93 15.1412 8.06625 15.1412ZM7.98 8.14875C6.65375 8.14875 4.6925 9.23375 4.6875 11.3837C4.68375 12.9912 5.92875 14.6437 8.0025 14.7137C8.7925 14.7387 9.60625 14.4362 10.2638 13.79C10.9463 13.1187 11.33 12.2538 11.3162 11.4163C11.2837 9.6 9.79875 8.155 7.99625 8.14625C7.99375 8.14625 7.98375 8.14875 7.98 8.14875Z" fill="#9B9B9D"/>
<path id="Vector_6" d="M7.26125 7.68375C7.175 7.565 6.29125 7.59875 5.34 8.4175C4.395 9.23125 4.25375 10.1313 4.42375 10.1788C4.6175 10.2325 4.85375 9.3625 5.67 8.63125C6.42 7.9625 7.4325 7.92 7.26125 7.68375ZM10.985 10.965C10.6837 11.0075 10.9962 11.91 10.2975 12.92C9.69125 13.7963 9.00375 14.1137 9.08375 14.3062C9.19125 14.5637 10.2925 13.9225 10.8025 12.8775C11.2637 11.9325 11.2087 10.9338 10.985 10.965Z" fill="#FEFFFA"/>
<path id="Vector_7" d="M3.18875 0.465C3.11 0.5375 6.12125 5.9 6.12125 5.9C6.12125 5.9 6.62625 5.965 7.75375 5.975C8.88125 5.985 9.44 5.91 9.44 5.91C9.44 5.91 7.09875 0.51875 6.95875 0.465C6.89 0.4375 5.9625 0.4275 5.05625 0.4175C4.14875 0.40625 3.26375 0.395 3.18875 0.465Z" fill="#2E9DF4"/>
<path id="Vector_8" d="M7.10625 10.7938C7.23625 10.795 7.3525 10.6187 7.46 10.5112C7.68875 10.2812 7.92875 10.0987 8.2025 10.3462C8.875 10.9575 7.525 11.5775 7.0125 12.425C6.63 13.0575 6.5525 13.5437 6.65875 13.6737C6.765 13.8037 9.35125 13.7975 9.38625 13.7325C9.42125 13.6675 9.4575 12.8013 9.3975 12.76C9.3375 12.7188 8.06625 12.7425 8.06625 12.7425C8.06625 12.7425 8.1725 12.495 8.60875 12.1175C9.0875 11.7038 9.47125 11.135 9.36875 10.4625C9.15625 9.0725 7.75625 9.02125 7.15 9.505C6.55875 9.97625 6.68625 10.7888 7.10625 10.7938Z" fill="#9B9B9D"/>
</g>
</svg>
